<svg xmlns="http://www.w3.org/2000/svg" width="29.16" height="29.16" viewBox="0 0 29.16 29.16">
  <g id="water" transform="translate(0.001)">
    <path id="Path_57745" data-name="Path 57745" d="M19.323,310.05c4.029,0,5.763.534,5.763,1.334,0,1.548-2.946.534-2.946,2.028,0,1.445,6.932.48,7.019,2.082.053.982-1.817,1.208-4.289,1.281-2.751.081-5.936-.32-5.979.961-.045,1.333,2.773.506,2.773,2.054,0,2.376-14.167,2.323-14.167,0,0-1.548,2.818-.721,2.773-2.054-.043-1.281-3.228-.88-5.979-.961-2.472-.073-4.343-.3-4.289-1.281.087-1.6,7.019-.637,7.019-2.082,0-1.494-2.946-.48-2.946-2.028,0-.8,1.733-1.334,5.763-1.334Z" transform="translate(0 -292.392)" fill="#baeefc"/>
    <path id="Path_57746" data-name="Path 57746" d="M245.273,429.1c.025-.731,1.073-.914,2.479-.952-2.268-.019-4.38-.09-4.415.952-.045,1.333,2.773.506,2.773,2.054,0,1.073-2.888,1.65-6.055,1.747,3.817.116,7.992-.457,7.992-1.747C248.046,429.6,245.228,430.428,245.273,429.1Z" transform="translate(-226.383 -403.751)" fill="#a2e1f8"/>
    <path id="Path_57747" data-name="Path 57747" d="M310.048,313.412c0-1.494,2.946-.48,2.946-2.028,0-.8-1.733-1.334-5.763-1.334H305.3c4.029,0,5.762.534,5.762,1.334,0,1.548-2.946.534-2.946,2.028,0,1.445,6.932.48,7.019,2.082.053.982-1.817,1.208-4.289,1.281l-.158,0c.688.006,1.4.016,2.094,0,2.472-.073,4.343-.3,4.289-1.281C316.981,313.892,310.048,314.857,310.048,313.412Z" transform="translate(-287.91 -292.391)" fill="#a2e1f8"/>
    <path id="Path_57748" data-name="Path 57748" transform="translate(-0.001)" fill="none" stroke="#000" stroke-linecap="round" stroke-linejoin="round" stroke-miterlimit="10" stroke-width="15.453"/>
    <path id="Path_57749" data-name="Path 57749" d="M176.407,116.431l-4.157,7.2a4.8,4.8,0,1,0,8.313,0Z" transform="translate(-161.828 -109.8)" fill="#82d5f2"/>
    <path id="Path_57750" data-name="Path 57750" d="M248.714,306.336a.44.44,0,1,1,0-.88,2.573,2.573,0,0,0,2.251-1.3.44.44,0,0,1,.762.44A3.444,3.444,0,0,1,248.714,306.336Z" transform="translate(-234.135 -286.626)" fill="#67c6e4"/>
    <path id="Path_57751" data-name="Path 57751" d="M309.083,36.056l-1.855,3.212a2.142,2.142,0,1,0,3.709,0Z" transform="translate(-289.458 -34.002)" fill="#baeefc"/>
    <path id="Path_57752" data-name="Path 57752" d="M177.621,0l-1.3,2.244a1.5,1.5,0,1,0,2.591,0Z" transform="translate(-166.093)" fill="#82d5f2"/>
  </g>
</svg>
