<svg xmlns="http://www.w3.org/2000/svg" xmlns:xlink="http://www.w3.org/1999/xlink" width="376.806" height="236.004" viewBox="0 0 376.806 236.004">
  <defs>
    <clipPath id="clip-path">
      <path id="Path_104" data-name="Path 104" d="M365.022,181.4l8.121-8.215L364.611,156a19.572,19.572,0,0,0-13.821-10.5c-.369-.072-.744-.13-1.12-.18l-1.51-.2H336.037l-1.713-.463-2.391,1.1-4.927,2.269a20.221,20.221,0,0,0-11.64,20.713l2.312,19.825,8.518-4.992-1.134,30.972a2.173,2.173,0,0,0,2.485,2.232l39.491-5.809a1.962,1.962,0,0,0,1.662-2.2Z" transform="translate(-315.23 -144.65)" fill="none"/>
    </clipPath>
  </defs>
  <g id="OBJECTS" transform="translate(-94.68 -87.398)">
    <g id="Group_37" data-name="Group 37" transform="translate(94.68 87.398)">
      <path id="Path_2" data-name="Path 2" d="M126.6,390.14s0-10.18-4.8-24.853-29.514-17.624-26.931-38.653c13.834,4.981,24.718,25.507,27.116,31.753-8.117-31.568-2.4-53.889-2.4-53.889s11.067,23.611,7.01,54.048c14.572-36.524,26.056-41.5,26.056-41.5s-3,22.135-10.93,33.757S127.7,362.235,127.7,362.235s.184,19.1,3.689,27.9Z" transform="translate(-94.68 -155.186)" fill="#fff"/>
      <path id="Path_3" data-name="Path 3" d="M589.285,390.14s0-10.18-4.8-24.853-29.515-17.624-26.932-38.653c13.835,4.981,24.718,25.507,27.116,31.753-8.117-31.568-2.4-53.889-2.4-53.889s11.068,23.611,7.01,54.048c14.573-36.524,26.056-41.5,26.056-41.5s-3,22.135-10.93,33.757-14.019,11.437-14.019,11.437.184,19.1,3.689,27.9Z" transform="translate(-239.151 -155.186)" fill="#fff"/>
      <g id="Group_36" data-name="Group 36" transform="translate(14.576)">
        <g id="Group_35" data-name="Group 35" transform="translate(9.4)">
          <g id="Group_6" data-name="Group 6" transform="translate(0 6.603)">
            <path id="Path_4" data-name="Path 4" d="M243.24,397.842l1.491,11.437L241.411,415l-8.024-3.136-2.506-11.16" transform="translate(-161.184 -190.935)" fill="#f0c9cf"/>
            <path id="Path_5" data-name="Path 5" d="M262.626,421.524l-17.5-10.138-3.32,4.7h-7.655l-.83,7.1h28.861A.894.894,0,0,0,262.626,421.524Z" transform="translate(-161.945 -195.164)" fill="#1f2251"/>
            <path id="Path_6" data-name="Path 6" d="M157.32,397.842l-2.214,11.437,3.32,5.718,8.024-3.136,3.228-11.16" transform="translate(-137.524 -190.935)" fill="#f0c9cf"/>
            <path id="Path_7" data-name="Path 7" d="M252.6,224.751,239.487,242a3.84,3.84,0,0,0-.78,2.067l-1.12,15.36-4.7-32.281,6.64-11.111-.665-2.211-2.507-8.323,12.933-4.884.787,2.327,4.1,12.174A10.42,10.42,0,0,1,252.6,224.751Z" transform="translate(-161.81 -129.354)" fill="#f0c9cf"/>
            <path id="Path_8" data-name="Path 8" d="M251.646,202.947l-11.213,10.881-2.507-8.323,12.932-4.884Z" transform="translate(-163.384 -129.354)" fill="#d683a7"/>
            <path id="Path_9" data-name="Path 9" d="M221.637,355.188l-15.858,2.579-12.463-53.529-3.092-13.279-.08-.332-20.215,68.491-15.895-4.364,14.775-95.165,1.12-7.21,40.271-.6.434,3.93Z" transform="translate(-137.19 -145.328)" fill="#99a3ca"/>
            <path id="Path_10" data-name="Path 10" d="M217.341,255.709l-41.824,3.88.6-3.88.52-3.331,40.271-.6.361,3.258Z" transform="translate(-143.897 -145.328)" fill="#7988b8"/>
            <path id="Path_11" data-name="Path 11" d="M217.541,255.038c-8.742,1.264-34.961.8-41.153.672l.521-3.331,40.271-.6Z" transform="translate(-144.169 -145.328)" fill="#1f2251"/>
            <path id="Path_12" data-name="Path 12" d="M226.506,184.549l-9.32,5.549-1.2.708-2.81,1.676v.073l-.058,1.2-.426,9.776-.058,1.2-.426,9.776-.051,1.2-.137,3.071s1.662,1.842,1.2,3.41c-.116.383-2.883.679-7.008.882-.39.021-.787.036-1.2.058-2.854.116-6.235.195-9.775.231-.4,0-.8.008-1.2.008-3.251.021-6.6,0-9.775-.058-.4-.007-.8-.021-1.2-.029-3.713-.087-7.123-.223-9.775-.44-.419-.029-.823-.065-1.2-.1-2.658-.252-4.284-.585-4.248-1.011a6.731,6.731,0,0,1,1.568-3.692l.007-2.327.008-1.2.036-9.776.007-1.2.036-9.776v-.621l-.99-.578-6.206-3.613-1.2-.7-7.745-4.515.426-.947.542-1.2,4.393-9.783.542-1.192,1.843-4.1.383-.853c.252-.556.52-1.105.816-1.633a22.3,22.3,0,0,1,2.131-3.193c.325-.412.664-.816,1.019-1.2a22.514,22.514,0,0,1,6.632-5.007c.391-.2.8-.382,1.2-.556a22.55,22.55,0,0,1,5.455-1.568l2.876-.448,1.445-.224,1.2-.188.043-.008,9.732.809,1.2.1,2.948.245,2.486.347c.151.022.31.043.462.073a22.5,22.5,0,0,1,3.88.975c.4.137.8.289,1.2.455a22.526,22.526,0,0,1,7.47,4.992c.383.383.759.788,1.113,1.2.419.484.816.99,1.192,1.51a20.721,20.721,0,0,1,1.2,1.849,22.172,22.172,0,0,1,1.105,2.138l1.929,4.285.542,1.192,4.407,9.783.542,1.2Z" transform="translate(-136.98 -114.056)" fill="#647bf4"/>
            <g id="Group_2" data-name="Group 2" transform="translate(16.808 37.577)">
              <path id="Path_13" data-name="Path 13" d="M225.363,181.583h-7.983V171.8h3.576l-.542-1.192h-3.034v-6.423a20.709,20.709,0,0,0-1.2-1.849v8.272H206.4v-9.783h8.583c-.354-.412-.73-.816-1.113-1.2H206.4v-4.992c-.4-.166-.8-.318-1.2-.455v5.447H195.43v-7.087l-1.2-.1v7.188h-9.775v-7.99l-1.2.188v7.8h-9.775v-5.563c-.4.173-.809.354-1.2.556v5.007h-6.632c-.354.383-.694.788-1.019,1.2h7.651v9.783H162.5v-6.589c-.3.528-.564,1.077-.816,1.633l-.383.853v4.1h-1.842l-.542,1.192H161.3v9.783h-6.777l-.542,1.2H161.3v5.462l1.2.7v-6.163h9.782v9.776h-3.576l.99.578v.621h2.586v9.776h-2.622l-.007,1.2h2.629v9.776h-2.666l-.008,1.2h2.673v7.03c.376.036.781.073,1.2.1v-7.131h9.775v7.572c.4.008.8.022,1.2.029v-7.6h9.775v7.659c.4,0,.8-.008,1.2-.008v-7.651h9.775v7.42c.412-.022.809-.036,1.2-.058v-7.362h5.946l.051-1.2h-6v-9.776h6.423l.058-1.2H206.4v-9.776h6.907l.058-1.2H206.4v-9.776h9.775v8.027l1.2-.708v-7.319H225.9Zm-53.081,0H162.5V171.8h9.782Zm10.975,32.924h-9.775v-9.776h9.775Zm0-10.975h-9.775v-9.776h9.775Zm0-10.974h-9.775v-9.776h9.775Zm0-10.975h-9.775V171.8h9.775Zm0-10.975h-9.775v-9.783h9.775Zm10.975,43.9h-9.775v-9.776h9.775Zm0-10.975h-9.775v-9.776h9.775Zm0-10.974h-9.775v-9.776h9.775Zm0-10.975h-9.775V171.8h9.775Zm0-10.975h-9.775v-9.783h9.775Zm10.975,43.9H195.43v-9.776h9.775Zm0-10.975H195.43v-9.776h9.775Zm0-10.974H195.43v-9.776h9.775Zm0-10.975H195.43V171.8h9.775Zm0-10.975H195.43v-9.783h9.775Zm10.975,10.975H206.4V171.8h9.775Z" transform="translate(-153.981 -151.636)" fill="#fff" opacity="0.25" style="mix-blend-mode: overlay;isolation: isolate"/>
            </g>
            <path id="Path_14" data-name="Path 14" d="M213.96,153.2c-.932,3.937-3.136,7.781-8.2,7.737-8.229-.072-10.664-6.343-11.314-8.893l2.688-.42,13.879,1.156,2.486.347C213.65,153.15,213.808,153.171,213.96,153.2Z" transform="translate(-149.808 -114.056)" fill="#fff"/>
            <line id="Line_1" data-name="Line 1" x1="1.054" y1="15.945" transform="translate(73.49 60.202)" fill="none" stroke="#1f2251" stroke-linecap="round" stroke-linejoin="round" stroke-width="0.525"/>
            <path id="Path_15" data-name="Path 15" d="M216.7,109.325s1.72,1.879.369,5.137a25.463,25.463,0,0,0-2.153,9.1c-.1,2.543-11.17,4.038-14.97,4.472-.788.094-1.265.138-1.265.138l-3.012-5.917c-.4-1.047-1.358-3.027-2.2-5.318-1.373-3.713-2.427-8.236-.26-10.9,3.5-4.306,7.406-2.4,13.388-5.347s8.994-5.7,12.433-1.662S216.7,109.325,216.7,109.325Z" transform="translate(-149.035 -96.999)" fill="#1f2251"/>
            <path id="Path_16" data-name="Path 16" d="M201.637,133.851l-1.011,1.279c-.788.094-1.265.138-1.265.138l-3.012-5.917c-.4-1.047-1.358-3.027-2.2-5.318a12.966,12.966,0,0,0,5.029-4.32Z" transform="translate(-149.716 -104.091)" fill="#161937"/>
            <path id="Path_17" data-name="Path 17" d="M212.233,147.192s.282,5.852-6.054,5.621-7.825-6.777-7.825-6.777l1.756-.368a66.855,66.855,0,0,0,0-11.943l12.13,6.177a2.717,2.717,0,0,0-.325.376c-1.409,1.936-1.25,6.358-1.25,6.358Z" transform="translate(-151.028 -108.467)" fill="#f0c9cf"/>
            <path id="Path_18" data-name="Path 18" d="M211.72,148.456c-7.807.23-9.99-8.9-9.99-8.9l11.239,2.543C211.56,144.035,211.72,148.456,211.72,148.456Z" transform="translate(-152.082 -110.287)" fill="#d683a7"/>
            <path id="Path_19" data-name="Path 19" d="M216.03,129.072a19.53,19.53,0,0,1-.188,3.244c-.635,4.2-2.876,7.182-8.294,6.748-8-.643-9.45-8.5-9.45-8.5a2.992,2.992,0,0,1-4.061-.246c-1.994-1.965-.982-4.949.954-5.288,1.047-.181,2.074.881,2.8,1.9a.557.557,0,0,0,1.012-.325v-7.687s9.739.4,15.519-1.72c.036-.014.065-.021.1-.036a4.673,4.673,0,0,1,1.366,3.23c.137,1.734-.174,3.67.014,5.3A31.936,31.936,0,0,1,216.03,129.072Z" transform="translate(-149.341 -103.294)" fill="#f0c9cf"/>
            <path id="Path_20" data-name="Path 20" d="M218.072,134.534l.768-.452a1.188,1.188,0,0,0,.489-1.5l-1.257-2.911" transform="translate(-157.185 -107.202)" fill="none" stroke="#c85e8b" stroke-linecap="round" stroke-miterlimit="9" stroke-width="0.525"/>
            <path id="Path_21" data-name="Path 21" d="M213.54,132.369a.563.563,0,1,1-.548-.692A.632.632,0,0,1,213.54,132.369Z" transform="translate(-155.427 -107.827)"/>
            <ellipse id="Ellipse_1" data-name="Ellipse 1" cx="0.548" cy="0.692" rx="0.548" ry="0.692" transform="translate(63.61 23.519)"/>
            <path id="Path_22" data-name="Path 22" d="M194.969,131.588c1.176-.668,2.6.461,2.328,2.144" transform="translate(-149.971 -107.738)" fill="none" stroke="#c85e8b" stroke-linecap="round" stroke-miterlimit="9" stroke-width="0.525"/>
            <path id="Path_23" data-name="Path 23" d="M214.247,141.3a2.931,2.931,0,0,0,3.6.338" transform="translate(-155.991 -110.832)" fill="none" stroke="#c85e8b" stroke-linecap="round" stroke-miterlimit="9" stroke-width="0.525"/>
            <path id="Path_24" data-name="Path 24" d="M209.333,127.79a2.918,2.918,0,0,1,3.423-.964" transform="translate(-154.456 -106.252)" fill="none" stroke="#1f2251" stroke-linecap="round" stroke-linejoin="round" stroke-width="0.788"/>
            <path id="Path_25" data-name="Path 25" d="M223.718,126.728a2.7,2.7,0,0,0-3.554-.125" transform="translate(-157.838 -106.061)" fill="none" stroke="#1f2251" stroke-linecap="round" stroke-linejoin="round" stroke-width="0.788"/>
            <circle id="Ellipse_2" data-name="Ellipse 2" cx="1.937" cy="1.937" r="1.937" transform="translate(53.217 25.395)" fill="#eab7c0"/>
            <path id="Path_26" data-name="Path 26" d="M225.11,134.307a19.53,19.53,0,0,1-.188,3.244,2.008,2.008,0,0,1-.954.246,1.936,1.936,0,0,1,0-3.872A1.857,1.857,0,0,1,225.11,134.307Z" transform="translate(-158.421 -108.529)" fill="#eab7c0"/>
            <g id="Group_3" data-name="Group 3" transform="translate(59.081 65.857)">
              <path id="Path_27" data-name="Path 27" d="M227.183,217.9h-9.968a1.715,1.715,0,0,1-1.724-2.164l4.226-20.814a2.786,2.786,0,0,1,2.6-2.164h11.4a1.716,1.716,0,0,1,1.725,2.164l-5.655,20.814A2.787,2.787,0,0,1,227.183,217.9Z" transform="translate(-215.446 -192.755)" fill="#2a3551"/>
              <path id="Path_28" data-name="Path 28" d="M229.261,219.186h-9.968a1.716,1.716,0,0,1-1.724-2.164l4.226-20.814a2.785,2.785,0,0,1,2.6-2.164h9.968a1.716,1.716,0,0,1,1.725,2.164l-4.226,20.814A2.786,2.786,0,0,1,229.261,219.186Z" transform="translate(-216.095 -193.158)" fill="#364380"/>
            </g>
            <path id="Path_29" data-name="Path 29" d="M204.065,216.536c0,2.059-2.464,3.873-2.464,3.873s.585,2.8-4.053,3.75-9.349-3.071-9.349-3.071l-29.961,6.322a11.166,11.166,0,0,1-2.334.246,11.291,11.291,0,0,1-10.245-16.032l4.328-9.349,1.5-3.251,15.281,8.908-1.091,1.878-1.582,2.731,24.254-.86a20.651,20.651,0,0,0,4.089-3.844c1.6-2.124,2.182-2.615,3.446-1.813s-.122,4.428-1.2,5.809c3.872,2.153,8.518.491,10.389.765S206.984,215.091,204.065,216.536Z" transform="translate(-134.248 -128.856)" fill="#f0c9cf"/>
            <path id="Path_30" data-name="Path 30" d="M226.56,224.035c-2.382,1.03-8.239.107-9.9-1" transform="translate(-156.744 -136.353)" fill="none" stroke="#c85e8b" stroke-linecap="round" stroke-miterlimit="9" stroke-width="0.525"/>
            <path id="Path_31" data-name="Path 31" d="M223.458,229.465c-3.29.646-6.979.431-8.854-1.445" transform="translate(-156.102 -137.91)" fill="none" stroke="#c85e8b" stroke-linecap="round" stroke-miterlimit="9" stroke-width="0.525"/>
            <path id="Path_32" data-name="Path 32" d="M225.513,204.376h0a.9.9,0,0,1-.9-1.122l.8-4.051a1.431,1.431,0,0,1,1.342-1.122h0a.9.9,0,0,1,.9,1.122l-.795,4.051A1.433,1.433,0,0,1,225.513,204.376Z" transform="translate(-159.22 -128.561)" fill="#445ec7"/>
            <line id="Line_2" data-name="Line 2" x1="8.055" transform="translate(21.794 83.685)" fill="none" stroke="#c85e8b" stroke-linecap="round" stroke-miterlimit="9" stroke-width="0.525"/>
            <line id="Line_3" data-name="Line 3" y1="5.211" x2="4.278" transform="translate(77.717 81.472)" fill="none" stroke="#c85e8b" stroke-linecap="round" stroke-miterlimit="9" stroke-width="0.525"/>
            <line id="Line_4" data-name="Line 4" y1="16.786" x2="8.729" transform="translate(32.523 62.287)" fill="none" stroke="#1f2251" stroke-linecap="round" stroke-linejoin="round" stroke-width="0.525"/>
            <path id="Path_33" data-name="Path 33" d="M169.21,207.932l-1.091,1.878-15.692-7.535,1.5-3.251Z" transform="translate(-136.688 -128.856)" fill="#d683a7"/>
            <line id="Line_5" data-name="Line 5" y1="18.077" x2="5.549" transform="translate(52.953 127.218)" fill="none" stroke="#1f2251" stroke-linecap="round" stroke-linejoin="round" stroke-width="0.525"/>
            <path id="Path_34" data-name="Path 34" d="M129.99,421.524l17.5-10.138,3.32,4.7h7.655l.83,7.1H130.438A.894.894,0,0,1,129.99,421.524Z" transform="translate(-129.542 -195.164)" fill="#1f2251"/>
            <g id="Group_4" data-name="Group 4" transform="translate(15.114 204.463)">
              <rect id="Rectangle_1" data-name="Rectangle 1" width="19.597" height="6.364" rx="2.811" transform="translate(1.283 0) rotate(11.635)" fill="#99a3ca"/>
              <line id="Line_6" data-name="Line 6" x2="16.009" y2="3.296" transform="translate(2.873 0.357)" fill="none" stroke="#1f2251" stroke-linecap="round" stroke-linejoin="round" stroke-width="0.525"/>
            </g>
            <g id="Group_5" data-name="Group 5" transform="translate(66.147 204.697)">
              <rect id="Rectangle_2" data-name="Rectangle 2" width="19.597" height="6.364" rx="2.811" transform="translate(0 3.569) rotate(-10.495)" fill="#99a3ca"/>
              <line id="Line_7" data-name="Line 7" y1="2.977" x2="16.071" transform="translate(1.607 0.325)" fill="none" stroke="#1f2251" stroke-linecap="round" stroke-linejoin="round" stroke-width="0.525"/>
            </g>
            <line id="Line_8" data-name="Line 8" y1="5.165" x2="35.11" transform="translate(36.888 97.543)" fill="none" stroke="#1f2251" stroke-linecap="round" stroke-linejoin="round" stroke-width="0.525"/>
            <path id="Path_35" data-name="Path 35" d="M211.689,285.2l-1.943,29.477-3.092-13.279.022-.672Z" transform="translate(-153.619 -155.762)" fill="#7988b8"/>
          </g>
          <g id="Group_26" data-name="Group 26" transform="translate(108.241)">
            <path id="Path_36" data-name="Path 36" d="M401.042,155.327,393.4,184.109a8.381,8.381,0,0,1-10.543,5.868l-5.155-1.569,15.559-36.6Z" transform="translate(-315.27 -107.508)" fill="#f0c9cf"/>
            <path id="Path_37" data-name="Path 37" d="M401.607,145.258c-.615-.77-5.472,1.813-6.64,2.09s-.123,3.192,2.029,2.9a3.748,3.748,0,0,0,2.829-2.558Z" transform="translate(-320.508 -105.42)" fill="#d683a7"/>
            <path id="Path_38" data-name="Path 38" d="M399.581,135.9l-.147,18.824,2.029-.43V135.907a.942.942,0,0,0-.652-.9h0A.942.942,0,0,0,399.581,135.9Z" transform="translate(-322.055 -102.25)" fill="#2a3551"/>
            <path id="Path_39" data-name="Path 39" d="M401.516,145.582s-6.213,6.226-5.013,8.025,5.026-1.476,5.764-2.49c-.092,2.075,2.561,4.026,4.151,3.781,2.4-.369,3.367-2.813,2.629-3.92s-5.211-3.69-5.211-3.69S402.7,143.922,401.516,145.582Z" transform="translate(-321.092 -105.422)" fill="#f0c9cf"/>
            <g id="Group_7" data-name="Group 7" transform="translate(0 213.51)">
              <path id="Path_40" data-name="Path 40" d="M314.7,397.842l-2.214,11.437,3.32,5.718,8.024-3.136,3.228-11.16" transform="translate(-294.907 -397.842)" fill="#f0c9cf"/>
              <path id="Path_41" data-name="Path 41" d="M287.372,421.524l17.5-10.138,3.32,4.7h7.655l.83,7.1H287.82A.894.894,0,0,1,287.372,421.524Z" transform="translate(-286.925 -402.071)" fill="#1f2251"/>
            </g>
            <g id="Group_8" data-name="Group 8" transform="translate(82.761 213.51)">
              <path id="Path_42" data-name="Path 42" d="M419.618,397.842l2.214,11.437L418.511,415l-8.024-3.136-3.228-11.16" transform="translate(-407.259 -397.842)" fill="#f0c9cf"/>
              <path id="Path_43" data-name="Path 43" d="M440.055,421.524l-17.5-10.138-3.32,4.7h-7.655l-.83,7.1h28.861A.894.894,0,0,0,440.055,421.524Z" transform="translate(-408.348 -402.071)" fill="#1f2251"/>
            </g>
            <path id="Path_44" data-name="Path 44" d="M391.764,344.135l-16.538,3.62-25.251-84.538L329.825,346.3l-16.393-2.413,10.527-88.331,1.618-13.6,24.514-1.871,16.465-1.257.3,1.257.173.73Z" transform="translate(-295.201 -134.68)" fill="#647bf4"/>
            <path id="Path_45" data-name="Path 45" d="M371.812,241.384,328.738,256.13l1.618-13.6,24.514-1.871h16.769Z" transform="translate(-299.98 -135.251)" fill="#4257b2"/>
            <path id="Path_46" data-name="Path 46" d="M373.163,208.966a1.962,1.962,0,0,1-1.662,2.2l-39.491,5.809a2.173,2.173,0,0,1-2.485-2.232l1.134-30.972.831-22.556,6.033-13.171,1.25-2.724h13.85l1.51.2c.376.05.752.108,1.12.18a19.573,19.573,0,0,1,13.821,10.5l8.532,17.181-8.121,8.215Z" transform="translate(-300.226 -105.485)" fill="#ebaf65"/>
            <path id="Path_47" data-name="Path 47" d="M332.084,157.546a4.3,4.3,0,0,0-.31,1.951l1.517,19.9-1.272.744-5.823,3.417-7.3,4.276-1.221.715-2.312-19.825a20.221,20.221,0,0,1,11.64-20.713l4.927-2.269,2.391-1.1,1.713.463,1.011.274-1.957,4.79Z" transform="translate(-295.763 -105.275)" fill="#ebaf65"/>
            <g id="Group_20" data-name="Group 20" transform="translate(19.467 39.375)">
              <g id="Group_19" data-name="Group 19" clip-path="url(#clip-path)">
                <g id="Group_18" data-name="Group 18" transform="translate(0.634 -0.969)">
                  <g id="Group_9" data-name="Group 9" transform="translate(0 63.18)">
                    <path id="Path_48" data-name="Path 48" d="M319.011,236.535a1.43,1.43,0,1,1-1.43-1.43A1.43,1.43,0,0,1,319.011,236.535Z" transform="translate(-316.152 -235.105)" fill="#fff" opacity="0.25" style="mix-blend-mode: overlay;isolation: isolate"/>
                    <path id="Path_49" data-name="Path 49" d="M331.317,236.535a1.429,1.429,0,1,1-1.429-1.43A1.429,1.429,0,0,1,331.317,236.535Z" transform="translate(-319.994 -235.105)" fill="#fff" opacity="0.25" style="mix-blend-mode: overlay;isolation: isolate"/>
                    <path id="Path_50" data-name="Path 50" d="M343.624,236.535a1.429,1.429,0,1,1-1.43-1.43A1.43,1.43,0,0,1,343.624,236.535Z" transform="translate(-323.837 -235.105)" fill="#fff" opacity="0.25" style="mix-blend-mode: overlay;isolation: isolate"/>
                    <path id="Path_51" data-name="Path 51" d="M355.93,236.535a1.43,1.43,0,1,1-1.429-1.43A1.429,1.429,0,0,1,355.93,236.535Z" transform="translate(-327.68 -235.105)" fill="#fff" opacity="0.25" style="mix-blend-mode: overlay;isolation: isolate"/>
                    <path id="Path_52" data-name="Path 52" d="M368.237,236.535a1.43,1.43,0,1,1-1.43-1.43A1.43,1.43,0,0,1,368.237,236.535Z" transform="translate(-331.522 -235.105)" fill="#fff" opacity="0.25" style="mix-blend-mode: overlay;isolation: isolate"/>
                    <path id="Path_53" data-name="Path 53" d="M380.543,236.535a1.429,1.429,0,1,1-1.429-1.43A1.429,1.429,0,0,1,380.543,236.535Z" transform="translate(-335.365 -235.105)" fill="#fff" opacity="0.25" style="mix-blend-mode: overlay;isolation: isolate"/>
                    <path id="Path_54" data-name="Path 54" d="M392.85,236.535a1.43,1.43,0,1,1-1.43-1.43A1.43,1.43,0,0,1,392.85,236.535Z" transform="translate(-339.208 -235.105)" fill="#fff" opacity="0.25" style="mix-blend-mode: overlay;isolation: isolate"/>
                    <path id="Path_55" data-name="Path 55" d="M405.156,236.535a1.43,1.43,0,1,1-1.429-1.43A1.429,1.429,0,0,1,405.156,236.535Z" transform="translate(-343.05 -235.105)" fill="#fff" opacity="0.25" style="mix-blend-mode: overlay;isolation: isolate"/>
                  </g>
                  <g id="Group_10" data-name="Group 10" transform="translate(0 55.283)">
                    <path id="Path_56" data-name="Path 56" d="M319.011,225.052a1.43,1.43,0,1,1-1.43-1.43A1.43,1.43,0,0,1,319.011,225.052Z" transform="translate(-316.152 -223.622)" fill="#fff" opacity="0.25" style="mix-blend-mode: overlay;isolation: isolate"/>
                    <path id="Path_57" data-name="Path 57" d="M331.317,225.052a1.429,1.429,0,1,1-1.429-1.43A1.429,1.429,0,0,1,331.317,225.052Z" transform="translate(-319.994 -223.622)" fill="#fff" opacity="0.25" style="mix-blend-mode: overlay;isolation: isolate"/>
                    <path id="Path_58" data-name="Path 58" d="M343.624,225.052a1.429,1.429,0,1,1-1.43-1.43A1.43,1.43,0,0,1,343.624,225.052Z" transform="translate(-323.837 -223.622)" fill="#fff" opacity="0.25" style="mix-blend-mode: overlay;isolation: isolate"/>
                    <path id="Path_59" data-name="Path 59" d="M355.93,225.052a1.43,1.43,0,1,1-1.429-1.43A1.429,1.429,0,0,1,355.93,225.052Z" transform="translate(-327.68 -223.622)" fill="#fff" opacity="0.25" style="mix-blend-mode: overlay;isolation: isolate"/>
                    <path id="Path_60" data-name="Path 60" d="M368.237,225.052a1.43,1.43,0,1,1-1.43-1.43A1.43,1.43,0,0,1,368.237,225.052Z" transform="translate(-331.522 -223.622)" fill="#fff" opacity="0.25" style="mix-blend-mode: overlay;isolation: isolate"/>
                    <path id="Path_61" data-name="Path 61" d="M380.543,225.052a1.429,1.429,0,1,1-1.429-1.43A1.429,1.429,0,0,1,380.543,225.052Z" transform="translate(-335.365 -223.622)" fill="#fff" opacity="0.25" style="mix-blend-mode: overlay;isolation: isolate"/>
                    <path id="Path_62" data-name="Path 62" d="M392.85,225.052a1.43,1.43,0,1,1-1.43-1.43A1.43,1.43,0,0,1,392.85,225.052Z" transform="translate(-339.208 -223.622)" fill="#fff" opacity="0.25" style="mix-blend-mode: overlay;isolation: isolate"/>
                    <path id="Path_63" data-name="Path 63" d="M405.156,225.052a1.43,1.43,0,1,1-1.429-1.43A1.429,1.429,0,0,1,405.156,225.052Z" transform="translate(-343.05 -223.622)" fill="#fff" opacity="0.25" style="mix-blend-mode: overlay;isolation: isolate"/>
                  </g>
                  <g id="Group_11" data-name="Group 11" transform="translate(0 47.385)">
                    <circle id="Ellipse_3" data-name="Ellipse 3" cx="1.43" cy="1.43" r="1.43" transform="translate(0 0)" fill="#fff" opacity="0.25" style="mix-blend-mode: overlay;isolation: isolate"/>
                    <path id="Path_64" data-name="Path 64" d="M331.317,213.569a1.429,1.429,0,1,1-1.429-1.43A1.429,1.429,0,0,1,331.317,213.569Z" transform="translate(-319.994 -212.139)" fill="#fff" opacity="0.25" style="mix-blend-mode: overlay;isolation: isolate"/>
                    <path id="Path_65" data-name="Path 65" d="M343.624,213.569a1.429,1.429,0,1,1-1.43-1.43A1.43,1.43,0,0,1,343.624,213.569Z" transform="translate(-323.837 -212.139)" fill="#fff" opacity="0.25" style="mix-blend-mode: overlay;isolation: isolate"/>
                    <path id="Path_66" data-name="Path 66" d="M355.93,213.569a1.43,1.43,0,1,1-1.429-1.43A1.429,1.429,0,0,1,355.93,213.569Z" transform="translate(-327.68 -212.139)" fill="#fff" opacity="0.25" style="mix-blend-mode: overlay;isolation: isolate"/>
                    <path id="Path_67" data-name="Path 67" d="M368.237,213.569a1.43,1.43,0,1,1-1.43-1.43A1.43,1.43,0,0,1,368.237,213.569Z" transform="translate(-331.522 -212.139)" fill="#fff" opacity="0.25" style="mix-blend-mode: overlay;isolation: isolate"/>
                    <circle id="Ellipse_4" data-name="Ellipse 4" cx="1.43" cy="1.43" r="1.43" transform="translate(42.319 0)" fill="#fff" opacity="0.25" style="mix-blend-mode: overlay;isolation: isolate"/>
                    <circle id="Ellipse_5" data-name="Ellipse 5" cx="1.43" cy="1.43" r="1.43" transform="translate(50.783 0)" fill="#fff" opacity="0.25" style="mix-blend-mode: overlay;isolation: isolate"/>
                    <circle id="Ellipse_6" data-name="Ellipse 6" cx="1.43" cy="1.43" r="1.43" transform="translate(59.247 0)" fill="#fff" opacity="0.25" style="mix-blend-mode: overlay;isolation: isolate"/>
                  </g>
                  <g id="Group_12" data-name="Group 12" transform="translate(0 39.488)">
                    <circle id="Ellipse_7" data-name="Ellipse 7" cx="1.43" cy="1.43" r="1.43" transform="translate(0 0)" fill="#fff" opacity="0.25" style="mix-blend-mode: overlay;isolation: isolate"/>
                    <path id="Path_68" data-name="Path 68" d="M331.317,202.086a1.429,1.429,0,1,1-1.429-1.43A1.429,1.429,0,0,1,331.317,202.086Z" transform="translate(-319.994 -200.656)" fill="#fff" opacity="0.25" style="mix-blend-mode: overlay;isolation: isolate"/>
                    <path id="Path_69" data-name="Path 69" d="M343.624,202.086a1.429,1.429,0,1,1-1.43-1.43A1.43,1.43,0,0,1,343.624,202.086Z" transform="translate(-323.837 -200.656)" fill="#fff" opacity="0.25" style="mix-blend-mode: overlay;isolation: isolate"/>
                    <path id="Path_70" data-name="Path 70" d="M355.93,202.086a1.43,1.43,0,1,1-1.429-1.43A1.429,1.429,0,0,1,355.93,202.086Z" transform="translate(-327.68 -200.656)" fill="#fff" opacity="0.25" style="mix-blend-mode: overlay;isolation: isolate"/>
                    <path id="Path_71" data-name="Path 71" d="M368.237,202.086a1.43,1.43,0,1,1-1.43-1.43A1.43,1.43,0,0,1,368.237,202.086Z" transform="translate(-331.522 -200.656)" fill="#fff" opacity="0.25" style="mix-blend-mode: overlay;isolation: isolate"/>
                    <circle id="Ellipse_8" data-name="Ellipse 8" cx="1.43" cy="1.43" r="1.43" transform="translate(42.319 0)" fill="#fff" opacity="0.25" style="mix-blend-mode: overlay;isolation: isolate"/>
                    <circle id="Ellipse_9" data-name="Ellipse 9" cx="1.43" cy="1.43" r="1.43" transform="translate(50.783 0)" fill="#fff" opacity="0.25" style="mix-blend-mode: overlay;isolation: isolate"/>
                    <circle id="Ellipse_10" data-name="Ellipse 10" cx="1.43" cy="1.43" r="1.43" transform="translate(59.247 0)" fill="#fff" opacity="0.25" style="mix-blend-mode: overlay;isolation: isolate"/>
                  </g>
                  <g id="Group_13" data-name="Group 13" transform="translate(0 31.59)">
                    <path id="Path_72" data-name="Path 72" d="M319.011,190.6a1.43,1.43,0,1,1-1.43-1.43A1.43,1.43,0,0,1,319.011,190.6Z" transform="translate(-316.152 -189.173)" fill="#fff" opacity="0.25" style="mix-blend-mode: overlay;isolation: isolate"/>
                    <path id="Path_73" data-name="Path 73" d="M331.317,190.6a1.429,1.429,0,1,1-1.429-1.43A1.429,1.429,0,0,1,331.317,190.6Z" transform="translate(-319.994 -189.173)" fill="#fff" opacity="0.25" style="mix-blend-mode: overlay;isolation: isolate"/>
                    <path id="Path_74" data-name="Path 74" d="M343.624,190.6a1.429,1.429,0,1,1-1.43-1.43A1.43,1.43,0,0,1,343.624,190.6Z" transform="translate(-323.837 -189.173)" fill="#fff" opacity="0.25" style="mix-blend-mode: overlay;isolation: isolate"/>
                    <path id="Path_75" data-name="Path 75" d="M355.93,190.6a1.43,1.43,0,1,1-1.429-1.43A1.429,1.429,0,0,1,355.93,190.6Z" transform="translate(-327.68 -189.173)" fill="#fff" opacity="0.25" style="mix-blend-mode: overlay;isolation: isolate"/>
                    <path id="Path_76" data-name="Path 76" d="M368.237,190.6a1.43,1.43,0,1,1-1.43-1.43A1.43,1.43,0,0,1,368.237,190.6Z" transform="translate(-331.522 -189.173)" fill="#fff" opacity="0.25" style="mix-blend-mode: overlay;isolation: isolate"/>
                    <path id="Path_77" data-name="Path 77" d="M380.543,190.6a1.429,1.429,0,1,1-1.429-1.43A1.429,1.429,0,0,1,380.543,190.6Z" transform="translate(-335.365 -189.173)" fill="#fff" opacity="0.25" style="mix-blend-mode: overlay;isolation: isolate"/>
                    <path id="Path_78" data-name="Path 78" d="M392.85,190.6a1.43,1.43,0,1,1-1.43-1.43A1.43,1.43,0,0,1,392.85,190.6Z" transform="translate(-339.208 -189.173)" fill="#fff" opacity="0.25" style="mix-blend-mode: overlay;isolation: isolate"/>
                    <path id="Path_79" data-name="Path 79" d="M405.156,190.6a1.43,1.43,0,1,1-1.429-1.43A1.429,1.429,0,0,1,405.156,190.6Z" transform="translate(-343.05 -189.173)" fill="#fff" opacity="0.25" style="mix-blend-mode: overlay;isolation: isolate"/>
                  </g>
                  <g id="Group_14" data-name="Group 14" transform="translate(0 23.693)">
                    <path id="Path_80" data-name="Path 80" d="M319.011,179.12a1.43,1.43,0,1,1-1.43-1.43A1.429,1.429,0,0,1,319.011,179.12Z" transform="translate(-316.152 -177.69)" fill="#fff" opacity="0.25" style="mix-blend-mode: overlay;isolation: isolate"/>
                    <path id="Path_81" data-name="Path 81" d="M331.317,179.12a1.429,1.429,0,1,1-1.429-1.43A1.429,1.429,0,0,1,331.317,179.12Z" transform="translate(-319.994 -177.69)" fill="#fff" opacity="0.25" style="mix-blend-mode: overlay;isolation: isolate"/>
                    <path id="Path_82" data-name="Path 82" d="M343.624,179.12a1.429,1.429,0,1,1-1.43-1.43A1.429,1.429,0,0,1,343.624,179.12Z" transform="translate(-323.837 -177.69)" fill="#fff" opacity="0.25" style="mix-blend-mode: overlay;isolation: isolate"/>
                    <path id="Path_83" data-name="Path 83" d="M355.93,179.12a1.43,1.43,0,1,1-1.429-1.43A1.429,1.429,0,0,1,355.93,179.12Z" transform="translate(-327.68 -177.69)" fill="#fff" opacity="0.25" style="mix-blend-mode: overlay;isolation: isolate"/>
                    <path id="Path_84" data-name="Path 84" d="M368.237,179.12a1.43,1.43,0,1,1-1.43-1.43A1.429,1.429,0,0,1,368.237,179.12Z" transform="translate(-331.522 -177.69)" fill="#fff" opacity="0.25" style="mix-blend-mode: overlay;isolation: isolate"/>
                    <path id="Path_85" data-name="Path 85" d="M380.543,179.12a1.429,1.429,0,1,1-1.429-1.43A1.429,1.429,0,0,1,380.543,179.12Z" transform="translate(-335.365 -177.69)" fill="#fff" opacity="0.25" style="mix-blend-mode: overlay;isolation: isolate"/>
                    <path id="Path_86" data-name="Path 86" d="M392.85,179.12a1.43,1.43,0,1,1-1.43-1.43A1.429,1.429,0,0,1,392.85,179.12Z" transform="translate(-339.208 -177.69)" fill="#fff" opacity="0.25" style="mix-blend-mode: overlay;isolation: isolate"/>
                    <path id="Path_87" data-name="Path 87" d="M405.156,179.12a1.43,1.43,0,1,1-1.429-1.43A1.429,1.429,0,0,1,405.156,179.12Z" transform="translate(-343.05 -177.69)" fill="#fff" opacity="0.25" style="mix-blend-mode: overlay;isolation: isolate"/>
                  </g>
                  <g id="Group_15" data-name="Group 15" transform="translate(0 15.795)">
                    <circle id="Ellipse_11" data-name="Ellipse 11" cx="1.43" cy="1.43" r="1.43" transform="translate(0 0)" fill="#fff" opacity="0.25" style="mix-blend-mode: overlay;isolation: isolate"/>
                    <path id="Path_88" data-name="Path 88" d="M331.317,167.637a1.429,1.429,0,1,1-1.429-1.43A1.429,1.429,0,0,1,331.317,167.637Z" transform="translate(-319.994 -166.207)" fill="#fff" opacity="0.25" style="mix-blend-mode: overlay;isolation: isolate"/>
                    <path id="Path_89" data-name="Path 89" d="M343.624,167.637a1.429,1.429,0,1,1-1.43-1.43A1.429,1.429,0,0,1,343.624,167.637Z" transform="translate(-323.837 -166.207)" fill="#fff" opacity="0.25" style="mix-blend-mode: overlay;isolation: isolate"/>
                    <path id="Path_90" data-name="Path 90" d="M355.93,167.637a1.43,1.43,0,1,1-1.429-1.43A1.429,1.429,0,0,1,355.93,167.637Z" transform="translate(-327.68 -166.207)" fill="#fff" opacity="0.25" style="mix-blend-mode: overlay;isolation: isolate"/>
                    <path id="Path_91" data-name="Path 91" d="M368.237,167.637a1.43,1.43,0,1,1-1.43-1.43A1.429,1.429,0,0,1,368.237,167.637Z" transform="translate(-331.522 -166.207)" fill="#fff" opacity="0.25" style="mix-blend-mode: overlay;isolation: isolate"/>
                    <circle id="Ellipse_12" data-name="Ellipse 12" cx="1.43" cy="1.43" r="1.43" transform="translate(42.319 0)" fill="#fff" opacity="0.25" style="mix-blend-mode: overlay;isolation: isolate"/>
                    <circle id="Ellipse_13" data-name="Ellipse 13" cx="1.43" cy="1.43" r="1.43" transform="translate(50.783 0)" fill="#fff" opacity="0.25" style="mix-blend-mode: overlay;isolation: isolate"/>
                    <circle id="Ellipse_14" data-name="Ellipse 14" cx="1.43" cy="1.43" r="1.43" transform="translate(59.247 0)" fill="#fff" opacity="0.25" style="mix-blend-mode: overlay;isolation: isolate"/>
                  </g>
                  <g id="Group_16" data-name="Group 16" transform="translate(0 7.898)">
                    <circle id="Ellipse_15" data-name="Ellipse 15" cx="1.43" cy="1.43" r="1.43" transform="translate(0 0)" fill="#fff" opacity="0.25" style="mix-blend-mode: overlay;isolation: isolate"/>
                    <path id="Path_92" data-name="Path 92" d="M331.317,156.154a1.429,1.429,0,1,1-1.429-1.43A1.429,1.429,0,0,1,331.317,156.154Z" transform="translate(-319.994 -154.724)" fill="#fff" opacity="0.25" style="mix-blend-mode: overlay;isolation: isolate"/>
                    <path id="Path_93" data-name="Path 93" d="M343.624,156.154a1.429,1.429,0,1,1-1.43-1.43A1.429,1.429,0,0,1,343.624,156.154Z" transform="translate(-323.837 -154.724)" fill="#fff" opacity="0.25" style="mix-blend-mode: overlay;isolation: isolate"/>
                    <path id="Path_94" data-name="Path 94" d="M355.93,156.154a1.43,1.43,0,1,1-1.429-1.43A1.429,1.429,0,0,1,355.93,156.154Z" transform="translate(-327.68 -154.724)" fill="#fff" opacity="0.25" style="mix-blend-mode: overlay;isolation: isolate"/>
                    <path id="Path_95" data-name="Path 95" d="M368.237,156.154a1.43,1.43,0,1,1-1.43-1.43A1.429,1.429,0,0,1,368.237,156.154Z" transform="translate(-331.522 -154.724)" fill="#fff" opacity="0.25" style="mix-blend-mode: overlay;isolation: isolate"/>
                    <circle id="Ellipse_16" data-name="Ellipse 16" cx="1.43" cy="1.43" r="1.43" transform="translate(42.319 0)" fill="#fff" opacity="0.25" style="mix-blend-mode: overlay;isolation: isolate"/>
                    <circle id="Ellipse_17" data-name="Ellipse 17" cx="1.43" cy="1.43" r="1.43" transform="translate(50.783 0)" fill="#fff" opacity="0.25" style="mix-blend-mode: overlay;isolation: isolate"/>
                    <circle id="Ellipse_18" data-name="Ellipse 18" cx="1.43" cy="1.43" r="1.43" transform="translate(59.247 0)" fill="#fff" opacity="0.25" style="mix-blend-mode: overlay;isolation: isolate"/>
                  </g>
                  <g id="Group_17" data-name="Group 17" transform="translate(0)">
                    <path id="Path_96" data-name="Path 96" d="M319.011,144.671a1.43,1.43,0,1,1-1.43-1.43A1.429,1.429,0,0,1,319.011,144.671Z" transform="translate(-316.152 -143.241)" fill="#fff" opacity="0.25" style="mix-blend-mode: overlay;isolation: isolate"/>
                    <path id="Path_97" data-name="Path 97" d="M331.317,144.671a1.429,1.429,0,1,1-1.429-1.43A1.429,1.429,0,0,1,331.317,144.671Z" transform="translate(-319.994 -143.241)" fill="#fff" opacity="0.25" style="mix-blend-mode: overlay;isolation: isolate"/>
                    <path id="Path_98" data-name="Path 98" d="M343.624,144.671a1.429,1.429,0,1,1-1.43-1.43A1.429,1.429,0,0,1,343.624,144.671Z" transform="translate(-323.837 -143.241)" fill="#fff" opacity="0.25" style="mix-blend-mode: overlay;isolation: isolate"/>
                    <path id="Path_99" data-name="Path 99" d="M355.93,144.671a1.43,1.43,0,1,1-1.429-1.43A1.429,1.429,0,0,1,355.93,144.671Z" transform="translate(-327.68 -143.241)" fill="#fff" opacity="0.25" style="mix-blend-mode: overlay;isolation: isolate"/>
                    <path id="Path_100" data-name="Path 100" d="M368.237,144.671a1.43,1.43,0,1,1-1.43-1.43A1.429,1.429,0,0,1,368.237,144.671Z" transform="translate(-331.522 -143.241)" fill="#fff" opacity="0.25" style="mix-blend-mode: overlay;isolation: isolate"/>
                    <path id="Path_101" data-name="Path 101" d="M380.543,144.671a1.429,1.429,0,1,1-1.429-1.43A1.429,1.429,0,0,1,380.543,144.671Z" transform="translate(-335.365 -143.241)" fill="#fff" opacity="0.25" style="mix-blend-mode: overlay;isolation: isolate"/>
                    <path id="Path_102" data-name="Path 102" d="M392.85,144.671a1.43,1.43,0,1,1-1.43-1.43A1.429,1.429,0,0,1,392.85,144.671Z" transform="translate(-339.208 -143.241)" fill="#fff" opacity="0.25" style="mix-blend-mode: overlay;isolation: isolate"/>
                    <path id="Path_103" data-name="Path 103" d="M405.156,144.671a1.43,1.43,0,1,1-1.429-1.43A1.429,1.429,0,0,1,405.156,144.671Z" transform="translate(-343.05 -143.241)" fill="#fff" opacity="0.25" style="mix-blend-mode: overlay;isolation: isolate"/>
                  </g>
                </g>
              </g>
            </g>
            <path id="Path_105" data-name="Path 105" d="M370.222,178.608,378.656,160a2.643,2.643,0,0,1,1.708-1.458l34.294-9.407c.58-.16,1.765,1.274,1.5,1.814l-12.479,23.164a3.58,3.58,0,0,1-1.943,1.768L369.483,188.1Z" transform="translate(-312.703 -106.67)" fill="#2a3551"/>
            <path id="Path_106" data-name="Path 106" d="M371.116,180.6l8.433-18.611a2.646,2.646,0,0,1,1.708-1.459l34.294-9.407a.7.7,0,0,1,.811.981l-11.79,24a3.578,3.578,0,0,1-1.943,1.768L370.377,190.1Z" transform="translate(-312.982 -107.288)" fill="#364380"/>
            <path id="Path_107" data-name="Path 107" d="M363.892,194.9s.693,1.618-2.717,4.754-8.583,1.106-8.583,1.106l-13.706,10.4a10.97,10.97,0,0,1-17.332-6.567l-.094-.47-.9-4.349,7.3-4.276,5.823-3.417.2,1.083.91,5.021,14.9-7.29s3-4.8,4.429-6.5,3.041-1.979,3.547-.874-2.717,5.629-2.717,5.629a23.98,23.98,0,0,0,4.8-1.344c3.6-1.243,5.946-3.822,6.914-3.042s.42,3.042-.874,4.8A7.233,7.233,0,0,1,363.892,194.9Z" transform="translate(-297.429 -117.203)" fill="#f0c9cf"/>
            <path id="Path_108" data-name="Path 108" d="M333.88,197.344,321.461,208.3l-.9-4.349,7.3-4.277,5.823-3.417Z" transform="translate(-297.429 -121.39)" fill="#d683a7"/>
            <path id="Path_109" data-name="Path 109" d="M358.373,145.5c-.571,3.23-2.391,6.5-7.283,7.023a10.56,10.56,0,0,1-8.417-2.341,11.344,11.344,0,0,1-2.03-2.34,12.854,12.854,0,0,1-1.127-2.088l2.391-1.1,1.712.463h12.123l1.51.2C357.629,145.365,358,145.423,358.373,145.5Z" transform="translate(-303.346 -105.275)" fill="#fff"/>
            <path id="Path_110" data-name="Path 110" d="M352.544,146.175c-6.784.759-9.551-5.671-9.551-5.671l1.387-.6a55.547,55.547,0,0,0-.274-8.532l1.936.5,9.544,2.456a13.056,13.056,0,0,0-.542,5.882c.022.188.036.3.036.3l1.748.463S357.111,145.67,352.544,146.175Z" transform="translate(-304.432 -101.129)" fill="#f0c9cf"/>
            <path id="Path_111" data-name="Path 111" d="M355.852,140.435c-3.822.087-8.677-1.243-10.165-6.235a1.523,1.523,0,0,1,1.163-2.1l9.544,2.456A13.056,13.056,0,0,0,355.852,140.435Z" transform="translate(-305.24 -101.355)" fill="#d683a7"/>
            <path id="Path_112" data-name="Path 112" d="M340.125,114.231l-3.47-4.266a5.492,5.492,0,0,1,.428-7.4h0a7.807,7.807,0,0,1,5.528-10.631l3.545-.78a4.664,4.664,0,0,0,1.748-.788l3.4-2.486a2.5,2.5,0,0,1,2.8-.1h0a2.5,2.5,0,0,1,.891,3.292L353.95,93.04a.26.26,0,0,0,.368.342l6.156-3.844a1.931,1.931,0,0,1,2.455.345h0a1.93,1.93,0,0,1,.138,2.413l-4.246,5.951a.261.261,0,0,0,.3.4l1.041-.369a2.392,2.392,0,0,1,2.837,1h0a2.386,2.386,0,0,1-.293,2.887c-2.03,2.16-5.842,6.476-6.346,8.931C355.666,114.461,340.125,114.231,340.125,114.231Z" transform="translate(-302.068 -87.398)" fill="#1f2251"/>
            <path id="Path_113" data-name="Path 113" d="M357.6,114.652a18.117,18.117,0,0,0-.224,3.107c0,.954.188,2.536.21,4.263a16.854,16.854,0,0,1-.311,3.7c-.607,2.8-2.276,5.187-6.488,5.187-8.627,0-9.5-8.532-9.5-8.532a1.363,1.363,0,0,1-2.168,1.084c-1.444-.723-1.936-4.017-.3-4.8a2.567,2.567,0,0,1,2.673.759.422.422,0,0,0,.694-.361l-.347-4.024c2.355.715,10.794-1.684,14.11-4.956a5.539,5.539,0,0,0,1.185,2.586A2.6,2.6,0,0,1,357.6,114.652Z" transform="translate(-302.807 -94.48)" fill="#f0c9cf"/>
            <g id="Group_21" data-name="Group 21" transform="translate(42.688 22.191)">
              <path id="Path_114" data-name="Path 114" d="M357.732,128.178l.768-.452a1.188,1.188,0,0,0,.489-1.5l-1.257-2.911" transform="translate(-351.722 -120.805)" fill="none" stroke="#c85e8b" stroke-linecap="round" stroke-miterlimit="9" stroke-width="0.525"/>
              <path id="Path_115" data-name="Path 115" d="M353.2,125.007a.563.563,0,1,1-.548-.692A.633.633,0,0,1,353.2,125.007Z" transform="translate(-349.964 -121.116)"/>
              <path id="Path_116" data-name="Path 116" d="M362.789,124.437a.563.563,0,1,1-.549-.692A.633.633,0,0,1,362.789,124.437Z" transform="translate(-352.958 -120.938)"/>
              <path id="Path_117" data-name="Path 117" d="M348.993,121.434a2.918,2.918,0,0,1,3.423-.964" transform="translate(-348.993 -119.855)" fill="none" stroke="#1f2251" stroke-linecap="round" stroke-linejoin="round" stroke-width="0.788"/>
              <path id="Path_118" data-name="Path 118" d="M363.378,120.372a2.7,2.7,0,0,0-3.554-.125" transform="translate(-352.375 -119.664)" fill="none" stroke="#1f2251" stroke-linecap="round" stroke-linejoin="round" stroke-width="0.788"/>
            </g>
            <path id="Path_119" data-name="Path 119" d="M353.969,132.806l3.265.153a1.648,1.648,0,0,1-1.757,1.583A1.571,1.571,0,0,1,353.969,132.806Z" transform="translate(-307.858 -101.576)" fill="#fff"/>
            <path id="Path_120" data-name="Path 120" d="M339.042,124.811c.968-.6,1.845.161,1.66,1.613" transform="translate(-303.198 -99.016)" fill="none" stroke="#c85e8b" stroke-linecap="round" stroke-miterlimit="9" stroke-width="0.525"/>
            <g id="Group_22" data-name="Group 22" transform="translate(41.749 27.409)">
              <path id="Path_121" data-name="Path 121" d="M351.5,129.188a1.937,1.937,0,1,1-1.937-1.937A1.937,1.937,0,0,1,351.5,129.188Z" transform="translate(-347.628 -127.251)" fill="#eab7c0"/>
              <path id="Path_122" data-name="Path 122" d="M365.372,127.384a16.852,16.852,0,0,1-.311,3.7,1.676,1.676,0,0,1-.382.043,1.936,1.936,0,1,1,0-3.873A1.849,1.849,0,0,1,365.372,127.384Z" transform="translate(-352.347 -127.252)" fill="#eab7c0"/>
            </g>
            <line id="Line_9" data-name="Line 9" x1="5.488" y2="2.767" transform="translate(31.878 80.973)" fill="none" stroke="#c85e8b" stroke-linecap="round" stroke-miterlimit="9" stroke-width="0.525"/>
            <path id="Path_123" data-name="Path 123" d="M382.768,192.594c-1.2,2.4-7.809,3.327-7.809,3.327" transform="translate(-314.413 -120.245)" fill="none" stroke="#c85e8b" stroke-linecap="round" stroke-miterlimit="9" stroke-width="0.525"/>
            <path id="Path_124" data-name="Path 124" d="M380.34,200.372c-2.675,2.859-7.1,2.168-7.1,2.168" transform="translate(-313.875 -122.673)" fill="none" stroke="#c85e8b" stroke-linecap="round" stroke-miterlimit="9" stroke-width="0.525"/>
            <line id="Line_10" data-name="Line 10" x1="2.288" y1="16.612" transform="translate(33.969 58.261)" fill="none" stroke="#1f2251" stroke-linecap="round" stroke-linejoin="round" stroke-width="0.525"/>
            <line id="Line_11" data-name="Line 11" x1="16.709" y2="14.088" transform="translate(47.742 88.075)" fill="none" stroke="#1f2251" stroke-linecap="round" stroke-linejoin="round" stroke-width="0.525"/>
            <g id="Group_23" data-name="Group 23" transform="translate(15.834 208.661)">
              <rect id="Rectangle_3" data-name="Rectangle 3" width="19.597" height="6.364" rx="2.811" transform="translate(0.815 0) rotate(7.356)" fill="#647bf4"/>
              <line id="Line_12" data-name="Line 12" x2="16.21" y2="2.093" transform="translate(2.426 0.238)" fill="none" stroke="#1f2251" stroke-linecap="round" stroke-linejoin="round" stroke-width="0.525"/>
            </g>
            <g id="Group_24" data-name="Group 24" transform="translate(78.871 207.328)">
              <rect id="Rectangle_4" data-name="Rectangle 4" width="19.597" height="6.364" rx="2.811" transform="translate(0 5.491) rotate(-16.273)" fill="#647bf4"/>
              <line id="Line_13" data-name="Line 13" y1="4.58" x2="15.69" transform="translate(1.572 0.483)" fill="none" stroke="#1f2251" stroke-linecap="round" stroke-linejoin="round" stroke-width="0.525"/>
            </g>
            <g id="Group_25" data-name="Group 25" transform="translate(67.515 55.538)">
              <path id="Path_125" data-name="Path 125" d="M386.062,168.649a1.619,1.619,0,1,1-.729,2.477A1.861,1.861,0,0,1,386.062,168.649Z" transform="translate(-385.091 -168.15)" fill="#fff" opacity="0.25" style="mix-blend-mode: overlay;isolation: isolate"/>
              <path id="Path_126" data-name="Path 126" d="M386.932,169.646a.831.831,0,1,1-.375,1.272A.957.957,0,0,1,386.932,169.646Z" transform="translate(-385.51 -168.537)" fill="#fff" opacity="0.25" style="mix-blend-mode: overlay;isolation: isolate"/>
            </g>
            <line id="Line_14" data-name="Line 14" x1="4.359" y2="20.194" transform="translate(51.738 120.864)" fill="none" stroke="#1f2251" stroke-linecap="round" stroke-linejoin="round" stroke-width="0.525"/>
          </g>
          <path id="Path_127" data-name="Path 127" d="M453.686,182.885h-.455A.881.881,0,0,1,453.686,182.885Z" transform="translate(-230.612 -117.204)" fill="#364380"/>
          <path id="Path_128" data-name="Path 128" d="M453.218,182.9a.046.046,0,0,0-.029.007V182.9Z" transform="translate(-230.598 -117.217)" fill="#364380"/>
          <g id="Group_34" data-name="Group 34" transform="translate(216.849 5.125)">
            <g id="Group_27" data-name="Group 27" transform="translate(21.376 188.45)">
              <path id="Path_129" data-name="Path 129" d="M502.592,368.856l-1.107,31.695,3.32,5.718,8.024-3.136,2.121-31.418" transform="translate(-483.903 -368.856)" fill="#f0c9cf"/>
              <path id="Path_130" data-name="Path 130" d="M476.368,421.993l17.5-10.137,3.32,4.7h7.656l.83,7.1H476.816A.894.894,0,0,1,476.368,421.993Z" transform="translate(-475.921 -382.283)" fill="#ebaf65"/>
            </g>
            <g id="Group_28" data-name="Group 28" transform="translate(81.232 188.45)">
              <path id="Path_131" data-name="Path 131" d="M575.311,368.856l10.083,31.695-3.32,5.718-8.024-3.136-11.1-31.418" transform="translate(-562.952 -368.856)" fill="#f0c9cf"/>
              <path id="Path_132" data-name="Path 132" d="M607.19,421.993l-17.5-10.137-3.32,4.7h-7.655l-.83,7.1h28.861A.894.894,0,0,0,607.19,421.993Z" transform="translate(-567.614 -382.283)" fill="#ebaf65"/>
            </g>
            <path id="Path_133" data-name="Path 133" d="M502.643,217.076,498.492,336.7l16.417,1.2,6.272-74.8L545.9,340.193l14.573-4.58s-19.737-81.368-21.951-92.99-1.107-17.711-4.611-25.826Z" transform="translate(-461.593 -132.927)" fill="#292f69"/>
            <path id="Path_134" data-name="Path 134" d="M517.831,98.665c-4.731-1.292-8.328,5.626-7.221,14.2s-6.272,16.786-5.442,20.291,17.247,8.393,28.223,8.3,14.388-4.889,12.359-8.3-5.257-6.735-4.981-17.018S533.908,86.674,517.831,98.665Z" transform="translate(-463.657 -94.849)" fill="#1f2251"/>
            <path id="Path_135" data-name="Path 135" d="M476.39,158.372l-6.087,13.65L460.9,149.953s-1.2-7.537-2.168-9.658-.645-4.935-1.937-5.35-1.752,1.891-1.752,3.873a26.218,26.218,0,0,1-.323,3.875s-5.4-4.7-5.719-6.18-.138-6.5-1.337-7.148-2.536.83-2.814,5.118,8.347,16.786,8.347,16.786l6.318,30.621,17.708,3.228,10.515-17.248Z" transform="translate(-444.841 -105.581)" fill="#f0c9cf"/>
            <path id="Path_136" data-name="Path 136" d="M544.95,168.512l-6.516,4.732-.614.44-4.862,3.533-.737,19.276-2.969-.058-.614-.014-8.569-.173-.614-.007-8.569-.173-.614-.014-8.569-.174-.614-.014-.874-.015a46.524,46.524,0,0,0-1.012-11.581,21.668,21.668,0,0,1,.549-11.6l-9.038-8.186,4.631-7.2a14.159,14.159,0,0,1,5.744-5.094c.2-.1.4-.2.614-.282a13.187,13.187,0,0,1,2.088-.715l6.481-1.662.354-.094.26-.065,2.2-.571,6.372.022h.614l6.943.021,1.626.853.614.325.014.008,5.838,3.056a13.83,13.83,0,0,1,2.717,1.857c.209.173.419.362.614.556a14.155,14.155,0,0,1,3.3,4.942Z" transform="translate(-459.164 -111.698)" fill="#647bf4"/>
            <g id="Group_29" data-name="Group 29" transform="translate(41.924 37.133)">
              <path id="Path_137" data-name="Path 137" d="M506.412,153.327V197.29l-.614-.014V153.609C506,153.508,506.2,153.414,506.412,153.327Z" transform="translate(-505.798 -150.242)" fill="#fff" opacity="0.25" style="mix-blend-mode: overlay;isolation: isolate"/>
              <path id="Path_138" data-name="Path 138" d="M519.764,149.64v46.687l-.614-.014V149.8l.354-.094Z" transform="translate(-509.967 -149.091)" fill="#fff" opacity="0.25" style="mix-blend-mode: overlay;isolation: isolate"/>
              <path id="Path_139" data-name="Path 139" d="M533.115,148.842v47.417l-.614-.007V148.842Z" transform="translate(-514.136 -148.842)" fill="#fff" opacity="0.25" style="mix-blend-mode: overlay;isolation: isolate"/>
              <path id="Path_140" data-name="Path 140" d="M546.467,150.438v46.4l-.614-.014V150.113Z" transform="translate(-518.305 -149.238)" fill="#fff" opacity="0.25" style="mix-blend-mode: overlay;isolation: isolate"/>
              <path id="Path_141" data-name="Path 141" d="M559.819,158.3v17.737l-.614.44V157.739C559.414,157.912,559.624,158.1,559.819,158.3Z" transform="translate(-522.474 -151.62)" fill="#fff" opacity="0.25" style="mix-blend-mode: overlay;isolation: isolate"/>
            </g>
            <path id="Path_142" data-name="Path 142" d="M538.282,150.038c-1.9,3.887-6.928,6.155-13.092,5.751-5.173-.347-5.809-3.793-5.549-6.344l2.457-.635,13.929.043Z" transform="translate(-468.181 -111.698)" fill="#fff"/>
            <path id="Path_143" data-name="Path 143" d="M537.084,143.513a10.2,10.2,0,0,1-9.045,5.072c-6.5,0-4.884-5.116-4.884-5.116l1.842-.6-.109-3.171-.166-4.624,11.068-3.367a6.46,6.46,0,0,0-.505,1.893,49.888,49.888,0,0,0,.043,9.27Z" transform="translate(-469.238 -106.358)" fill="#f0c9cf"/>
            <path id="Path_144" data-name="Path 144" d="M536.584,131.708a6.462,6.462,0,0,0-.505,1.893c0,.008-.008.008-.008.014-3.107,6.25-8.337,6.322-10.389,6.084l-.166-4.624Z" transform="translate(-470.031 -106.358)" fill="#d683a7"/>
            <path id="Path_145" data-name="Path 145" d="M522.552,107.513c1.019,5.445,12.663,9.212,13.488,9.834a2.719,2.719,0,0,1,.689,1.883.127.127,0,0,0,.247.036c.294-.8.882-1.952,1.874-2.07,1.54-.184,3.027,1.757,2.149,4.089s-4.4,1.1-4.4,1.1-2.864,6.981-9.456,7.173-8.046-5.394-7.546-8.823a22.19,22.19,0,0,0,.161-7.156C519.47,111.555,522,110.128,522.552,107.513Z" transform="translate(-468.155 -98.804)" fill="#f0c9cf"/>
            <path id="Path_146" data-name="Path 146" d="M547.936,123.541a2.465,2.465,0,0,0-.923,2.375" transform="translate(-476.726 -103.808)" fill="none" stroke="#c85e8b" stroke-linecap="round" stroke-miterlimit="9" stroke-width="0.525"/>
            <g id="Group_30" data-name="Group 30" transform="translate(52.946 16.033)">
              <path id="Path_147" data-name="Path 147" d="M528.55,127.66l-.768-.452a1.188,1.188,0,0,1-.488-1.5l1.256-2.91" transform="translate(-523.501 -119.611)" fill="none" stroke="#c85e8b" stroke-linecap="round" stroke-miterlimit="9" stroke-width="0.525"/>
              <path id="Path_148" data-name="Path 148" d="M533.2,124.488a.563.563,0,1,0,.548-.692A.633.633,0,0,0,533.2,124.488Z" transform="translate(-525.376 -119.921)"/>
              <path id="Path_149" data-name="Path 149" d="M523.61,123.918a.563.563,0,1,0,.549-.692A.633.633,0,0,0,523.61,123.918Z" transform="translate(-522.382 -119.743)"/>
              <path id="Path_150" data-name="Path 150" d="M535.779,118.995a2.919,2.919,0,0,0-3.529-.437" transform="translate(-525.079 -118.162)" fill="none" stroke="#1f2251" stroke-linecap="round" stroke-linejoin="round" stroke-width="0.788"/>
              <path id="Path_151" data-name="Path 151" d="M521.824,118.961a2.7,2.7,0,0,1,3.554-.124" transform="translate(-521.824 -118.19)" fill="none" stroke="#1f2251" stroke-linecap="round" stroke-linejoin="round" stroke-width="0.788"/>
            </g>
            <path id="Path_152" data-name="Path 152" d="M524.513,123.213A2.816,2.816,0,1,1,521.7,120.4,2.816,2.816,0,0,1,524.513,123.213Z" transform="translate(-467.959 -102.826)" fill="none" stroke="#647bf4" stroke-miterlimit="10" stroke-width="0.788"/>
            <path id="Path_153" data-name="Path 153" d="M535.869,123.213a2.816,2.816,0,1,1-2.817-2.816A2.816,2.816,0,0,1,535.869,123.213Z" transform="translate(-471.505 -102.826)" fill="none" stroke="#647bf4" stroke-miterlimit="10" stroke-width="0.788"/>
            <path id="Path_154" data-name="Path 154" d="M526.955,123.31a1.645,1.645,0,0,1,2.336,0" transform="translate(-470.48 -103.577)" fill="none" stroke="#647bf4" stroke-miterlimit="10" stroke-width="0.788"/>
            <path id="Path_155" data-name="Path 155" d="M530.352,133.284a3.347,3.347,0,0,0,3.268-.523" transform="translate(-471.541 -106.687)" fill="none" stroke="#c85e8b" stroke-linecap="round" stroke-miterlimit="9" stroke-width="0.525"/>
            <path id="Path_156" data-name="Path 156" d="M485.831,206.213H458.506v0a1,1,0,0,1-1-.721l-5.86-21.263a1,1,0,0,1,.7-1.228l.34-.094h.007a.046.046,0,0,1,.029-.007h27.331Z" transform="translate(-446.956 -122.342)" fill="#99a3ca"/>
            <path id="Path_157" data-name="Path 157" d="M475.763,200.409a2.121,2.121,0,1,1-2.121-2.122A2.121,2.121,0,0,1,475.763,200.409Z" transform="translate(-453.171 -127.147)" fill="#e6e9fc"/>
            <g id="Group_31" data-name="Group 31" transform="translate(31.791 60.296)">
              <rect id="Rectangle_5" data-name="Rectangle 5" width="23.673" height="2.352" rx="1.176" transform="translate(6.093 21.224)" fill="#7988b8"/>
              <rect id="Rectangle_6" data-name="Rectangle 6" width="23.673" height="2.352" rx="1.176" transform="matrix(0.266, 0.964, -0.964, 0.266, 2.267, 0)" fill="#7988b8"/>
            </g>
            <path id="Path_158" data-name="Path 158" d="M561.617,210.6a9.053,9.053,0,0,1-14.19,7.47l-15.194-10.454s-8.265,1.814-11.985,1.474-7.688-2.3-7.717-3.071,14.97-2.34,14.262-2.955-7.405-.672-7.5-2.117,1.6-1.936,4.393-2.124a17.808,17.808,0,0,1,6.365,1.228l15.208,2.11-4.321-12.6-1.171-3.4,11.993-8.706.781,2.529,8.669,27.946A8.97,8.97,0,0,1,561.617,210.6Z" transform="translate(-465.976 -120.643)" fill="#f0c9cf"/>
            <path id="Path_159" data-name="Path 159" d="M564.128,177.457l.78,2.529-11.6,9.58-1.171-3.4Z" transform="translate(-478.342 -120.643)" fill="#d683a7"/>
            <line id="Line_15" data-name="Line 15" x2="6.502" y2="0.876" transform="translate(79.28 81.52)" fill="none" stroke="#c85e8b" stroke-linecap="round" stroke-miterlimit="9" stroke-width="0.525"/>
            <path id="Path_160" data-name="Path 160" d="M507.4,214.928a.357.357,0,1,1-.358-.358A.358.358,0,0,1,507.4,214.928Z" transform="translate(-464.153 -132.231)" fill="#1f2251"/>
            <path id="Path_161" data-name="Path 161" d="M509.513,214.928a.358.358,0,1,1-.358-.358A.358.358,0,0,1,509.513,214.928Z" transform="translate(-464.811 -132.231)" fill="#1f2251"/>
            <g id="Group_32" data-name="Group 32" transform="translate(35.164 202.361)">
              <rect id="Rectangle_7" data-name="Rectangle 7" width="19.597" height="6.364" rx="2.811" transform="matrix(0.999, 0.034, -0.034, 0.999, 0.215, 0)" fill="#99a3ca"/>
            </g>
            <g id="Group_33" data-name="Group 33" transform="translate(81.326 199.116)">
              <rect id="Rectangle_8" data-name="Rectangle 8" width="19.597" height="6.364" rx="2.811" transform="translate(0 5.624) rotate(-16.678)" fill="#99a3ca"/>
            </g>
            <line id="Line_16" data-name="Line 16" x2="7.614" y2="24.598" transform="translate(54.854 114.555)" fill="none" stroke="#1f2251" stroke-linecap="round" stroke-linejoin="round" stroke-width="0.525"/>
            <path id="Path_162" data-name="Path 162" d="M506.69,199.566c4.046,3.737,11.2,4.29,11.2,4.29" transform="translate(-464.153 -127.546)" fill="none" stroke="#1f2251" stroke-linecap="round" stroke-linejoin="round" stroke-width="0.525"/>
            <line id="Line_17" data-name="Line 17" x1="5.165" y1="8.706" transform="translate(68.627 56.814)" fill="none" stroke="#1f2251" stroke-linecap="round" stroke-linejoin="round" stroke-width="0.525"/>
            <path id="Path_163" data-name="Path 163" d="M503.857,178.912a31.764,31.764,0,0,0,2.663-10.122" transform="translate(-463.268 -117.937)" fill="none" stroke="#1f2251" stroke-linecap="round" stroke-linejoin="round" stroke-width="0.525"/>
          </g>
        </g>
        <line id="Line_18" data-name="Line 18" x2="361.179" transform="translate(0 234.954)" fill="none" stroke="#97a2d4" stroke-linecap="round" stroke-linejoin="round" stroke-width="2.101"/>
      </g>
    </g>
    <g id="Group_42" data-name="Group 42" transform="translate(205.181 87.399)">
      <g id="Group_39" data-name="Group 39" transform="translate(127.791 0)">
        <path id="Path_164" data-name="Path 164" d="M476.42,87.4v29.033l-7.3-7.291H441.156V87.4Z" transform="translate(-441.156 -87.4)" fill="#fff"/>
        <g id="Group_38" data-name="Group 38" transform="translate(9.511 5.885)">
          <line id="Line_19" data-name="Line 19" x2="16.243" fill="none" stroke="#647bf4" stroke-linecap="round" stroke-linejoin="round" stroke-width="1"/>
          <line id="Line_20" data-name="Line 20" x2="13.554" transform="translate(2.689 3.336)" fill="none" stroke="#647bf4" stroke-linecap="round" stroke-linejoin="round" stroke-width="1" opacity="0.25"/>
          <line id="Line_21" data-name="Line 21" x2="16.243" transform="translate(0 6.673)" fill="none" stroke="#647bf4" stroke-linecap="round" stroke-linejoin="round" stroke-width="1" opacity="0.25"/>
          <line id="Line_22" data-name="Line 22" x2="11.389" transform="translate(4.854 10.009)" fill="none" stroke="#647bf4" stroke-linecap="round" stroke-linejoin="round" stroke-width="1" opacity="0.25"/>
        </g>
      </g>
      <g id="Group_41" data-name="Group 41" transform="translate(0 16.869)">
        <path id="Path_165" data-name="Path 165" d="M255.348,111.927V140.96l7.3-7.291h27.964V111.927Z" transform="translate(-255.348 -111.927)" fill="#fff"/>
        <g id="Group_40" data-name="Group 40" transform="translate(9.511 5.885)">
          <line id="Line_23" data-name="Line 23" x1="16.243" fill="none" stroke="#ebaf65" stroke-linecap="round" stroke-linejoin="round" stroke-width="1"/>
          <line id="Line_24" data-name="Line 24" x1="13.554" transform="translate(0 3.336)" fill="none" stroke="#647bf4" stroke-linecap="round" stroke-linejoin="round" stroke-width="1" opacity="0.25"/>
          <line id="Line_25" data-name="Line 25" x1="16.243" transform="translate(0 6.673)" fill="none" stroke="#647bf4" stroke-linecap="round" stroke-linejoin="round" stroke-width="1" opacity="0.25"/>
          <line id="Line_26" data-name="Line 26" x1="11.389" transform="translate(0 10.009)" fill="none" stroke="#647bf4" stroke-linecap="round" stroke-linejoin="round" stroke-width="1" opacity="0.25"/>
        </g>
      </g>
    </g>
  </g>
</svg>
