<svg id="_x31__x2C_5" enable-background="new 0 0 36 36" height="512" viewBox="0 0 36 36" width="512" xmlns="http://www.w3.org/2000/svg"><g><path d="m8.377 4.167c6.917 0 11.667-3.583 15-3.583s10.333 1.916 10.333 17.249-9.417 17.583-13.083 17.583c-17.167.001-24.5-31.249-12.25-31.249z" fill="#efefef"/></g><g><path d="m26.5 9c-.827 0-1.5-.673-1.5-1.5s.673-1.5 1.5-1.5 1.5.673 1.5 1.5-.673 1.5-1.5 1.5zm0-2c-.276 0-.5.225-.5.5s.224.5.5.5.5-.225.5-.5-.224-.5-.5-.5z" fill="#a4afc1"/></g><g><path d="m8.75 29.25v-18.5l10.5-4v22.5z" fill="#f3f3f1"/></g><g><path d="m28.25 29.25v-13.5l-9-3.94v17.44z" fill="#2fdf84"/></g><g><path d="m19.25 7.607v-.857l-10.5 4v18.5h2.25v-18.5z" fill="#d5dbe1"/></g><g><path d="m19.25 11.81v17.44h2.25v-16.455z" fill="#00b871"/></g><g><path d="m20 29.25h-1.5v-21.412l-9 3.429v17.983h-1.5v-18.5c0-.312.192-.59.483-.701l10.5-4c.23-.086.49-.056.693.084s.324.37.324.617z"/></g><g><path d="m29 30h-1.5v-13.763l-5.74-2.546.608-1.371 6.186 2.744c.271.121.446.389.446.686z"/></g><g><path d="m11 12h1.5v3h-1.5z"/></g><g><path d="m15.5 12h1.5v3h-1.5z"/></g><g><path d="m11 18h1.5v3h-1.5z"/></g><g><path d="m15.5 18h1.5v3h-1.5z"/></g><g><path d="m11 24h1.5v3h-1.5z"/></g><g><path d="m15.5 24h1.5v3h-1.5z"/></g><g><path d="m21.5 18h1.5v3h-1.5z"/></g><g><path d="m24.5 18h1.5v3h-1.5z"/></g><g><path d="m21.5 24h1.5v3h-1.5z"/></g><g><path d="m24.5 24h1.5v3h-1.5z"/></g><g><path d="m2 28.5h32v1.5h-32z"/></g></svg>